<svg width="135" height="22" viewBox="0 0 135 22" fill="none" xmlns="http://www.w3.org/2000/svg">
<path d="M5.27983 21H0.666193L7.69602 0.636362H13.2443L20.2642 21H15.6506L10.5497 5.28977H10.3906L5.27983 21ZM4.99148 12.9957H15.8892V16.3565H4.99148V12.9957ZM25.5152 21V0.636362H29.8206V9.03835H38.5607V0.636362H42.8561V21H38.5607V12.5881H29.8206V21H25.5152ZM52.7158 21H48.1021L55.132 0.636362H60.6803L67.7002 21H63.0865L57.9857 5.28977H57.8266L52.7158 21ZM52.4274 12.9957H63.3252V16.3565H52.4274V12.9957ZM89.9838 0.636362V21H86.2651L77.4057 8.18324H77.2565V21H72.9511V0.636362H76.7296L85.5193 13.4432H85.6983V0.636362H89.9838ZM95.5654 4.18608V0.636362H112.29V4.18608H106.055V21H101.8V4.18608H95.5654ZM130.422 0.636362H134.728V13.8608C134.728 15.3456 134.373 16.6449 133.664 17.7585C132.961 18.8722 131.977 19.7405 130.711 20.3636C129.444 20.9801 127.97 21.2884 126.286 21.2884C124.596 21.2884 123.117 20.9801 121.851 20.3636C120.585 19.7405 119.601 18.8722 118.898 17.7585C118.195 16.6449 117.844 15.3456 117.844 13.8608V0.636362H122.15V13.4929C122.15 14.2685 122.319 14.9579 122.657 15.5611C123.001 16.1643 123.485 16.6383 124.108 16.983C124.731 17.3277 125.457 17.5 126.286 17.5C127.121 17.5 127.847 17.3277 128.463 16.983C129.087 16.6383 129.567 16.1643 129.905 15.5611C130.25 14.9579 130.422 14.2685 130.422 13.4929V0.636362Z" fill="#6B65AD"/>
</svg>
